<svg width="20" height="20" viewBox="0 0 20 20" fill="none" xmlns="http://www.w3.org/2000/svg">
<path d="M19.5512 17.342L12.1694 9.95979L19.5112 2.61796C20.1099 2.01891 20.1099 1.04783 19.5112 0.449104C18.9122 -0.14962 17.9414 -0.14962 17.3424 0.449104L10.0005 7.79093L2.65903 0.449104C2.05998 -0.14962 1.08923 -0.14962 0.490175 0.449104C-0.108877 1.04816 -0.108877 2.01924 0.490175 2.61796L7.83168 9.95979L0.449167 17.342C-0.149885 17.941 -0.149885 18.9118 0.449167 19.5108C0.748693 19.8104 1.14106 19.96 1.53376 19.96C1.92646 19.96 2.31883 19.8104 2.61835 19.5108L10.0005 12.1286L17.3824 19.5108C17.6819 19.8104 18.0743 19.96 18.467 19.96C18.8597 19.96 19.252 19.8104 19.5516 19.5108C20.15 18.9121 20.15 17.941 19.5512 17.342Z" fill="#DADADA"/>
</svg>
