<svg width="37" height="37" viewBox="0 0 37 37" fill="none" xmlns="http://www.w3.org/2000/svg">
<g filter="url(#filter0_d_606_224)">
<path d="M20.0001 0.666656C16.3741 0.666656 12.8295 1.74189 9.81464 3.75638C6.79973 5.77087 4.44991 8.63415 3.0623 11.9841C1.67469 15.3341 1.31163 19.0203 2.01903 22.5766C2.72642 26.133 4.4725 29.3997 7.03647 31.9636C9.60043 34.5276 12.8671 36.2737 16.4234 36.9811C19.9798 37.6884 23.666 37.3254 27.016 35.9378C30.3659 34.5502 33.2292 32.2003 35.2437 29.1854C37.2582 26.1705 38.3334 22.626 38.3334 19C38.3334 14.1377 36.4019 9.47453 32.9637 6.03637C29.5256 2.5982 24.8624 0.666656 20.0001 0.666656ZM29.5118 15.1783L17.8451 26.845C17.5325 27.1574 17.1087 27.333 16.6668 27.333C16.2248 27.333 15.801 27.1574 15.4884 26.845L10.4884 21.845C10.1848 21.5307 10.0168 21.1096 10.0206 20.6727C10.0244 20.2357 10.1997 19.8176 10.5087 19.5086C10.8177 19.1996 11.2358 19.0243 11.6728 19.0205C12.1097 19.0167 12.5308 19.1847 12.8451 19.4883L16.6668 23.31L27.1551 12.8217C27.4694 12.5181 27.8904 12.3501 28.3274 12.3539C28.7644 12.3577 29.1824 12.5329 29.4915 12.842C29.8005 13.151 29.9758 13.569 29.9796 14.006C29.9833 14.443 29.8154 14.864 29.5118 15.1783Z" fill="#E3B100"/>
</g>
<defs>
<filter id="filter0_d_606_224" x="-2.33325" y="0.666656" width="44.6667" height="44.6667" filterUnits="userSpaceOnUse" color-interpolation-filters="sRGB">
<feFlood flood-opacity="0" result="BackgroundImageFix"/>
<feColorMatrix in="SourceAlpha" type="matrix" values="0 0 0 0 0 0 0 0 0 0 0 0 0 0 0 0 0 0 127 0" result="hardAlpha"/>
<feOffset dy="4"/>
<feGaussianBlur stdDeviation="2"/>
<feComposite in2="hardAlpha" operator="out"/>
<feColorMatrix type="matrix" values="0 0 0 0 0 0 0 0 0 0 0 0 0 0 0 0 0 0 0.25 0"/>
<feBlend mode="normal" in2="BackgroundImageFix" result="effect1_dropShadow_606_224"/>
<feBlend mode="normal" in="SourceGraphic" in2="effect1_dropShadow_606_224" result="shape"/>
</filter>
</defs>
</svg>
