<svg width="20" height="14" viewBox="0 0 20 14" fill="none" xmlns="http://www.w3.org/2000/svg">
<path d="M19 4.75C18.8011 4.75 18.6103 4.82902 18.4697 4.96967C18.329 5.11032 18.25 5.30109 18.25 5.5V11.5C18.25 11.6989 18.171 11.8897 18.0303 12.0303C17.8897 12.171 17.6989 12.25 17.5 12.25H2.5C2.30109 12.25 2.11032 12.171 1.96967 12.0303C1.82902 11.8897 1.75 11.6989 1.75 11.5V5.5C1.75 5.30109 1.67098 5.11032 1.53033 4.96967C1.38968 4.82902 1.19891 4.75 1 4.75C0.801088 4.75 0.610322 4.82902 0.46967 4.96967C0.329018 5.11032 0.25 5.30109 0.25 5.5V11.5C0.250525 12.0965 0.487923 12.6684 0.91 13.09C1.33155 13.5121 1.90346 13.7495 2.5 13.75H17.5C18.0965 13.7495 18.6684 13.5121 19.09 13.09C19.5121 12.6684 19.7495 12.0965 19.75 11.5V5.5C19.75 5.30109 19.671 5.11032 19.5303 4.96967C19.3897 4.82902 19.1989 4.75 19 4.75Z" fill="white"/>
<path d="M9.54998 9.1C9.6798 9.19737 9.8377 9.25 9.99998 9.25C10.1623 9.25 10.3202 9.19737 10.45 9.1L19.3075 2.455C19.4457 2.3508 19.5436 2.20202 19.5846 2.03389C19.6256 1.86576 19.6072 1.68862 19.5325 1.5325C19.4208 1.30174 19.2712 1.09133 19.09 0.91C18.6684 0.487923 18.0965 0.250525 17.5 0.25H2.49998C1.90345 0.250525 1.33153 0.487923 0.909983 0.91C0.728749 1.09133 0.579178 1.30174 0.467482 1.5325C0.392795 1.68862 0.374395 1.86576 0.415403 2.03389C0.456412 2.20202 0.554304 2.3508 0.692482 2.455L9.54998 9.1ZM2.49998 1.75H17.5C17.5696 1.73904 17.6404 1.73904 17.71 1.75L9.99998 7.5625L2.28998 1.75C2.35955 1.73904 2.43041 1.73904 2.49998 1.75Z" fill="white"/>
</svg>
