<svg width="18" height="18" viewBox="0 0 18 18" fill="none" xmlns="http://www.w3.org/2000/svg">
<path d="M16.4953 12.7266C15.8109 12.0234 13.8656 10.7063 12.5906 10.7063C12.2953 10.7063 12.0375 10.7719 11.8266 10.9078C11.2031 11.3063 10.7062 11.6156 10.4672 11.6156C10.3359 11.6156 10.1953 11.4984 9.88593 11.2313L9.83437 11.1844C8.97655 10.4391 8.79374 10.2469 8.46093 9.90001L8.37655 9.81095C8.31562 9.75001 8.26405 9.69376 8.21249 9.6422C7.92187 9.3422 7.71093 9.12658 6.96562 8.28282L6.9328 8.24532C6.57655 7.8422 6.34218 7.5797 6.32812 7.38751C6.31405 7.20001 6.47812 6.89532 6.89531 6.32814C7.40156 5.64376 7.4203 4.80001 6.95624 3.82032C6.58593 3.04689 5.98124 2.30626 5.44687 1.6547L5.39999 1.59845C4.94062 1.03595 4.40624 0.7547 3.81093 0.7547C3.14999 0.7547 2.60155 1.11095 2.31093 1.29845C2.28749 1.31251 2.26405 1.33126 2.24062 1.34532C1.58905 1.75782 1.11562 2.32501 0.937492 2.90157C0.670305 3.76876 0.49218 4.89376 1.77187 7.23283C2.87812 9.25782 3.88124 10.6172 5.47499 12.2531C6.97499 13.7906 7.64062 14.2875 9.13124 15.3656C10.7906 16.5656 12.3844 17.2547 13.5 17.2547C14.5359 17.2547 15.3516 17.2547 16.5141 15.8531C17.7328 14.3813 17.2266 13.4813 16.4953 12.7266ZM15.9562 15.3469C15.0187 16.4813 14.4797 16.4813 13.5047 16.4813C12.5531 16.4813 11.0766 15.825 9.5578 14.7328C8.10468 13.6828 7.4578 13.2 5.99999 11.7047C4.4578 10.125 3.48749 8.80783 2.41874 6.85314C1.28905 4.78595 1.41562 3.88126 1.6453 3.13595C1.76718 2.73751 2.1328 2.31095 2.62968 2.00157C2.65312 1.98751 2.67655 1.96876 2.70468 1.9547C2.95312 1.79532 3.36562 1.52814 3.81562 1.52814C4.19062 1.52814 4.52343 1.71564 4.84218 2.1047L4.88905 2.16095C6.08437 3.62345 7.01718 4.9172 6.31405 5.87345C5.81718 6.54376 5.55468 6.99845 5.59687 7.4672C5.63437 7.92189 5.93905 8.26408 6.39843 8.7797L6.43124 8.8172C7.18593 9.67032 7.40156 9.89532 7.70156 10.2C7.75312 10.2516 7.80468 10.3078 7.86562 10.3688L7.94999 10.4578C8.29687 10.8188 8.48905 11.0156 9.3703 11.7891L9.42187 11.8359C9.79687 12.1641 10.0734 12.4031 10.4766 12.4031C10.8937 12.4031 11.3531 12.1406 12.225 11.5828C12.3141 11.5266 12.4406 11.4938 12.6 11.4938C13.6172 11.4938 15.3703 12.6563 15.9844 13.2891C16.5469 13.8609 16.8281 14.2922 15.9562 15.3469Z" fill="white"/>
</svg>
